# Blender v2.59 (sub 0) OBJ File: ''
# www.blender.org
o Plane
v 1.000000 -1.000000 -1.000000
v 1.000000 -1.000000 1.000000
v -1.000000 -1.000000 1.000000
v -1.000000 -1.000000 -1.000000
v 1.000000 1.000000 -0.999999
v 0.999999 1.000000 1.000001
v -1.000000 1.000000 1.000000
v -1.000000 1.000000 -1.000000
vt 0.333333 0.000000
vt 0.666670 0.000000
vt 0.666667 0.500000
vt 0.333330 0.500000
vt 0.333333 0.500000
vt 0.000000 0.500000
vt 0.000000 0.000000
vt 0.333330 0.000000
vt 0.333330 1.000000
vt 0.666667 1.000000
vt 0.666670 0.500000
vt 1.000000 0.500000
vt 1.000000 1.000000
vt 0.667686 1.000000
vt 1.000000 0.000000
vt 1.000000 0.500265
vt -0.000340 0.500000
vt 0.333333 1.000000
vt 0.000000 1.000000
vn 0.000000 0.000000 -1.000000
vn -1.000000 -0.000000 -0.000000
vn -0.000000 -0.000000 1.000000
vn 1.000000 -0.000000 0.000000
vn 1.000000 0.000000 0.000001
vn -0.000000 1.000000 0.000000
vn 0.000000 -1.000000 0.000000

f 5/1/1 1/2/1 4/3/1
f 5/1/1 4/3/1 8/4/1
f 3/5/2 7/6/2 8/7/2
f 3/5/2 8/7/2 4/8/2
f 2/9/3 6/5/3 3/10/3
f 6/5/3 7/11/3 3/10/3
f 1/12/4 5/13/4 2/3/4
f 5/13/5 6/14/5 2/3/5
f 5/15/6 8/16/6 6/2/6
f 8/16/6 7/3/6 6/2/6
f 1/17/7 2/4/7 3/18/7
f 1/17/7 3/18/7 4/19/7
